HIERARCHY
ROOT Hips
{
  OFFSET 57.8838 95.319 338.509
  CHANNELS 6 Xposition Yposition Zposition Zrotation Xrotation Yrotation
  JOINT LeftUpLeg
  {
    OFFSET 8.64259 1.95398 -2.38835
    CHANNELS 3 Zrotation Xrotation Yrotation
    JOINT LeftLeg
    {
      OFFSET 43.7702 0 0
      CHANNELS 3 Zrotation Xrotation Yrotation
      JOINT LeftFoot
      {
        OFFSET 40.6238 0 0
        CHANNELS 3 Zrotation Xrotation Yrotation
        JOINT LeftToeBase
        {
          OFFSET 12.7242 0 0
          CHANNELS 3 Zrotation Xrotation Yrotation
          End Site
          {
            OFFSET 0 0 0
          }
        }
      }
    }
  }
  JOINT RightUpLeg
  {
    OFFSET -8.2249 1.95398 -2.59336
    CHANNELS 3 Zrotation Xrotation Yrotation
    JOINT RightLeg
    {
      OFFSET 43.5653 0 0
      CHANNELS 3 Zrotation Xrotation Yrotation
      JOINT RightFoot
      {
        OFFSET 40.6238 0 0
        CHANNELS 3 Zrotation Xrotation Yrotation
        JOINT RightToeBase
        {
          OFFSET 12.7242 0 0
          CHANNELS 3 Zrotation Xrotation Yrotation
          End Site
          {
            OFFSET 0 0 0
          }
        }
      }
    }
  }
  JOINT Spine
  {
    OFFSET 0.165834 0.87714 6.61349
    CHANNELS 3 Zrotation Xrotation Yrotation
    JOINT Spine1
    {
      OFFSET 7.38963 1.71661e-005 0
      CHANNELS 3 Zrotation Xrotation Yrotation
      JOINT Spine2
      {
        OFFSET 11.9445 1.14441e-005 0
        CHANNELS 3 Zrotation Xrotation Yrotation
        JOINT Spine3
        {
          OFFSET 14.7254 4.19617e-005 0
          CHANNELS 3 Zrotation Xrotation Yrotation
          JOINT Spine4
          {
            OFFSET 10.9679 0 0
            CHANNELS 3 Zrotation Xrotation Yrotation
            JOINT RightShoulder
            {
              OFFSET 2.46616 -1.6653 3.69651
              CHANNELS 3 Zrotation Xrotation Yrotation
              JOINT RightArm
              {
                OFFSET 13.0012 0 0
                CHANNELS 3 Zrotation Xrotation Yrotation
                JOINT RightForeArm
                {
                  OFFSET 28.7848 1.62311e-005 0
                  CHANNELS 3 Zrotation Xrotation Yrotation
                  JOINT RightHand
                  {
                    OFFSET 26.5688 1.62095e-005 0
                    CHANNELS 3 Zrotation Xrotation Yrotation
                    End Site
                    {
                      OFFSET 0 0 0
                    }
                  }
                }
              }
            }
            JOINT LeftShoulder
            {
              OFFSET 2.38034 -1.29275 -3.7523
              CHANNELS 3 Zrotation Xrotation Yrotation
              JOINT LeftArm
              {
                OFFSET 16.3182 6.07031e-005 0
                CHANNELS 3 Zrotation Xrotation Yrotation
                JOINT LeftForeArm
                {
                  OFFSET 27.0901 0 0
                  CHANNELS 3 Zrotation Xrotation Yrotation
                  JOINT LeftHand
                  {
                    OFFSET 24.5451 1.51738e-005 0
                    CHANNELS 3 Zrotation Xrotation Yrotation
                    End Site
                    {
                      OFFSET 0 0 0
                    }
                  }
                }
              }
            }
            JOINT Neck
            {
              OFFSET 5.0226 -0.0266342 0
              CHANNELS 3 Zrotation Xrotation Yrotation
              JOINT Head
              {
                OFFSET 6.69364 2.86102e-005 0
                CHANNELS 3 Zrotation Xrotation Yrotation
                End Site
                {
                  OFFSET 0 0 0
                }
              }
            }
          }
        }
      }
    }
  }
}
MOTION
Frames:	6
Frame Time:	0.0416667
-269.167 69.3169 -277.469 93.0494 6.72529 93.0081 178.608 39.2195 62.1707 -139.489 26.7646 52.5171 -83.8016 -9.12079 71.0498 -0.561538 -41.0787 57.8254 130.621 -3.69726 100.08 -84.8278 15.8618 -4.27546 114.485 -60.4238 3.0473 141.482 41.3831 136.42 -4.22071 5.30515 -89.7214 16.3841 -8.18483 1.93003 4.73705 -8.09195 2.29057 -18.0068 -8.38384 -0.636642 2.00584 -8.38385 -0.636638 126.662 -19.1543 -25.4413 41.7395 -52.0107 -33.5572 -149.368 -75.357 -149.02 -58.4265 25.3212 -49.4155 -52.0655 -39.8637 139.981 -3.67828 19.6098 12.2389 58.0774 25.5379 -119.658 44.8803 -22.8443 -53.7885 83.6883 0.340123 12.2118 51.7742 -23.9096 -31.2259 
-269.731 68.8897 -278.012 92.8353 7.02706 93.2114 178.669 38.4429 62.0298 -135.832 21.8209 50.8382 -82.56 -9.47225 75.386 -1.30797 -41.3227 56.9121 130.186 -4.05746 100.425 -84.1815 16.9984 -4.49008 114.422 -60.5361 2.99748 122.158 42.6322 149.278 -4.2579 5.29006 -89.748 16.4149 -8.27113 1.89411 4.76848 -8.1797 2.25857 -17.9798 -8.45526 -0.697367 2.0329 -8.45524 -0.69736 126.612 -19.0689 -25.464 42.0422 -51.3588 -33.1806 -142.474 -77.3339 -142.915 -58.4815 26.5164 -51.3191 -52.0357 -39.8809 140.018 -3.28374 16.9574 11.3828 60.1121 27.457 -122.466 45.9654 -23.5908 -54.1191 83.7036 0.31306 12.1618 51.7396 -23.8676 -31.2656 
-271.471 67.5652 -279.686 92.1834 7.92657 93.8316 178.773 35.4087 61.6495 -123.328 4.07885 49.1504 -78.1613 -9.99291 91.9446 -4.27702 -42.2448 53.3846 128.949 -5.11016 101.452 -82.1741 20.3632 -5.11886 113.624 -60.9861 2.18608 83.8617 36.5388 175.352 -4.36935 5.24502 -89.8285 16.5071 -8.53002 1.78555 4.86256 -8.44315 2.16178 -17.8989 -8.66931 -0.880369 2.11372 -8.66929 -0.880373 126.462 -18.8124 -25.533 42.8887 -49.3029 -32.0764 -106.217 -81.4946 -109.1 -57.369 29.845 -57.6642 -51.9469 -39.9351 140.13 -2.58462 9.64461 9.22781 66.9969 31.8935 -131.295 49.3465 -25.7699 -54.7518 83.7473 0.232185 12.0105 51.6397 -23.7406 -31.3819 
-274.273 65.3985 -282.379 91.156 9.28295 94.8129 178.232 31.4815 63.2461 -66.9397 -35.8552 72.8457 -66.5463 -2.55386 142.398 -12.8442 -43.6789 42.8691 127.253 -6.60436 102.999 -78.9142 25.301 -6.02142 109.834 -61.976 -1.82046 63.3773 28.4758 -168.779 -4.53919 5.176 -89.9537 16.648 -8.926 1.61641 5.00646 -8.84612 2.01065 -17.7758 -8.9957 -1.16337 2.2369 -8.99568 -1.16337 126.229 -18.415 -25.6403 43.9996 -45.8433 -30.4767 -43.8252 -78.5861 -50.5474 -52.7503 33.4188 -68.2024 -51.808 -40.0219 140.304 -2.49684 0.00471683 6.68587 78.8335 34.9973 -145.48 54.9185 -28.871 -54.7071 83.81 0.10834 11.7741 51.4928 -23.5425 -31.5555 
-278.04 62.3835 -285.975 89.805 10.9498 96.1113 173.748 33.7956 72.5827 -95.3117 -33.4111 56.0829 -70.6518 -48.8452 100.064 -26.5394 -35.2961 14.0849 125.474 -8.15758 104.889 -74.5399 30.9029 -6.99275 97.6802 -62.9824 -14.701 61.137 31.3005 -159.31 -4.75156 5.08856 -90.1156 16.8259 -9.42379 1.39652 5.18817 -9.35314 1.81349 -17.6209 -9.40384 -1.52633 2.39175 -9.40383 -1.52634 125.929 -17.9011 -25.7788 45.0442 -40.9715 -28.6299 -19.1169 -70.8182 -30.6793 -45.0117 34.9477 -80.4393 -51.6261 -40.1386 140.529 -3.48939 -10.1398 4.1394 93.1526 33.7029 -162.496 62.686 -32.2023 -52.9485 83.8834 -0.0495063 11.4658 51.3145 -23.2841 -31.7709 
-282.602 58.5104 -290.188 88.1893 12.7712 97.6767 168.728 33.0062 82.9237 -0.352191 -41.6025 129.241 74.7733 -70.0706 -127.991 12.5642 -7.52994 9.32347 123.918 -9.02142 106.797 -69.5996 35.8856 -7.68611 71.7049 -58.553 -42.4287 74.0644 49.4518 -154.064 -4.98939 4.98838 -90.306 17.0282 -9.98602 1.13546 5.3951 -9.9263 1.57821 -17.4452 -9.86087 -1.94871 2.5674 -9.86088 -1.94871 125.576 -17.2941 -25.9416 45.6833 -34.9037 -26.74 -8.35248 -65.229 -25.3088 -37.2048 34.174 -90.973 -51.4078 -40.2834 140.796 -5.67933 -19.7525 1.59339 105.436 21.9811 -177.041 72.215 -34.724 -49.308 83.9595 -0.231584 11.0987 51.1194 -22.9754 -32.0142 
